<svg width="75" height="75" viewBox="0 0 75 75" fill="none" xmlns="http://www.w3.org/2000/svg">
<path d="M37.5 4.1875C33.0162 4.1875 28.716 5.96869 25.5455 9.13923C22.3749 12.3098 20.5938 16.6099 20.5938 21.0938V29.9814C18.1568 30.1049 15.8448 31.1273 14.1111 32.8611C12.2591 34.713 11.2188 37.2247 11.2188 39.8438V60.9375C11.2188 63.5565 12.2591 66.0683 14.1111 67.9202C15.963 69.7721 18.4747 70.8125 21.0938 70.8125H53.9062C56.5253 70.8125 59.037 69.7721 60.8889 67.9202C62.7409 66.0683 63.7812 63.5565 63.7812 60.9375V39.8438C63.7812 37.2247 62.7409 34.713 60.8889 32.8611C59.1552 31.1273 56.8432 30.1049 54.4062 29.9814V21.0938C54.4062 11.7551 46.8386 4.1875 37.5 4.1875ZM48.7188 21.0938V29.9688H26.2812V21.0938C26.2812 18.1184 27.4632 15.2648 29.5671 13.1609C31.6711 11.057 34.5246 9.875 37.5 9.875C40.4754 9.875 43.3289 11.057 45.4329 13.1609C47.5368 15.2648 48.7188 18.1184 48.7188 21.0938Z" fill="#FFE953" stroke="black"/>
</svg>
