<svg width="76" height="76" viewBox="0 0 76 76" fill="none" xmlns="http://www.w3.org/2000/svg">
<rect width="75.5625" height="75.625" rx="20" fill="#3C3C3C"/>
<path fill-rule="evenodd" clip-rule="evenodd" d="M37.7812 5C33.43 5 29.257 6.72851 26.1803 9.80528C23.1035 12.882 21.375 17.055 21.375 21.4062V30.7812C18.8886 30.7812 16.504 31.769 14.7459 33.5271C12.9877 35.2853 12 37.6698 12 40.1562V61.25C12 63.7364 12.9877 66.121 14.7459 67.8791C16.504 69.6373 18.8886 70.625 21.375 70.625H54.1875C56.6739 70.625 59.0585 69.6373 60.8166 67.8791C62.5748 66.121 63.5625 63.7364 63.5625 61.25V40.1562C63.5625 37.6698 62.5748 35.2853 60.8166 33.5271C59.0585 31.769 56.6739 30.7812 54.1875 30.7812V21.4062C54.1875 12.3437 46.8438 5 37.7812 5ZM49.5 30.7812V21.4062C49.5 18.2982 48.2653 15.3175 46.0677 13.1198C43.87 10.9222 40.8893 9.6875 37.7812 9.6875C34.6732 9.6875 31.6925 10.9222 29.4948 13.1198C27.2972 15.3175 26.0625 18.2982 26.0625 21.4062V30.7812H49.5Z" fill="#FFE953"/>
</svg>
