<svg xmlns="http://www.w3.org/2000/svg" xmlns:xlink="http://www.w3.org/1999/xlink" width="16" height="16" version="1.1" viewBox="0 0 16 16"><title>file_type_markdown</title><g id="file_type_markdown" fill="none" fill-rule="evenodd" stroke="none" stroke-width="1"><g id="file_type_markdown.svg" fill="#D69D6B"><path d="M14.8592605,0 L1.15071715,0 C0.516784287,0.00382152973 0.00382391314,0.516462219 -4.72005587e-07,1.15 L-4.72005587e-07,8.84 C-0.000569160973,9.47698958 0.513349301,9.99505383 1.15071715,10 L14.8492543,10 C15.4847778,10 15.9999995,9.48512746 15.9999995,8.85 L15.9999995,1.15 C16.0021023,0.846085362 15.8829259,0.553858059 15.6688276,0.338016289 C15.4547293,0.122174519 15.1633717,0.00052480233 14.8592605,0 Z M9.00561244,8 L7.00436523,8 L7.00436523,5 L5.50342983,6.92 L4.00249442,5 L4.00249442,8 L2.00124721,8 L2.00124721,2 L4.00249442,2 L5.50342983,4 L7.00436523,2 L9.00561244,2 L9.00561244,8 Z M11.997477,8.5 L9.50592424,5 L11.0068597,5 L11.0068597,2 L13.0081069,2 L13.0081069,5 L14.5090423,5 L11.997477,8.5 Z" transform="translate(0.000000, 3.000000)"/></g></g></svg>