<svg width="52" height="52" viewBox="0 0 52 52" fill="none" xmlns="http://www.w3.org/2000/svg">
<path d="M3.67186 29.7939H6.87574C7.37972 32.3472 8.38768 34.7026 9.77363 36.7884L7.50572 39.0539C6.69575 39.8631 6.69575 41.1756 7.50572 41.9848L9.97162 44.4481C10.7816 45.2572 12.0955 45.2572 12.9055 44.4481L15.1734 42.1826C17.2613 43.585 19.6372 44.574 22.1751 45.0774V48.278C22.1751 49.4288 23.1111 50.3458 24.2451 50.3458H27.7369C28.8889 50.3458 29.8068 49.4108 29.8068 48.278V45.0774C32.3628 44.574 34.7207 43.5671 36.8086 42.1826L39.0765 44.4481C39.8865 45.2572 41.2004 45.2572 42.0104 44.4481L44.4763 41.9848C45.2862 41.1756 45.2862 39.8631 44.4763 39.0539L42.2084 36.7884C43.6123 34.7026 44.6023 32.3292 45.1063 29.7939H48.3101C49.4621 29.7939 50.3801 28.8589 50.3801 27.7261V24.2559C50.3801 23.1051 49.4441 22.1881 48.3101 22.1881H45.1063C44.6023 19.6348 43.5943 17.2794 42.2084 15.1936L44.4763 12.9281C45.2862 12.1189 45.2862 10.8064 44.4763 9.99723L41.9924 7.53388C41.1824 6.72475 39.8685 6.72475 39.0585 7.53388L36.7906 9.79944C34.7027 8.39695 32.3268 7.40801 29.7888 6.90456V3.704C29.7888 2.55324 28.8529 1.63623 27.7189 1.63623H24.2271C23.0751 1.63623 22.1571 2.57122 22.1571 3.704V6.90456C19.6012 7.40801 17.2433 8.41493 15.1554 9.79944L12.9055 7.53388C12.0955 6.72475 10.7816 6.72475 9.97162 7.53388L7.50572 9.99723C6.69575 10.8064 6.69575 12.1189 7.50572 12.9281L9.77363 15.1936C8.36968 17.2794 7.37972 19.6528 6.87574 22.1881H3.67186C2.51991 22.1881 1.60194 23.1231 1.60194 24.2559V27.7441C1.60194 28.8769 2.51991 29.7939 3.67186 29.7939ZM25.973 17.1715C30.8508 17.1715 34.8107 21.1272 34.8107 26C34.8107 30.8727 30.8508 34.8285 25.973 34.8285C21.0952 34.8285 17.1353 30.8727 17.1353 26C17.1353 21.1272 21.0952 17.1715 25.973 17.1715Z" fill="#94A4A4"/>
<path d="M48.2921 31.4302C50.3261 31.4302 52 29.7759 52 27.7261V24.2559C52 22.2241 50.3441 20.5519 48.2921 20.5519H46.4022C45.9162 18.7538 45.2143 17.0277 44.2783 15.4274L45.6282 14.0788C47.0682 12.6404 47.0682 10.2849 45.6282 8.84647L43.1623 6.38313C42.4604 5.68188 41.5244 5.30429 40.5524 5.30429C39.5625 5.30429 38.6265 5.68188 37.9425 6.38313L36.5926 7.73167C34.9727 6.79668 33.2627 6.07745 31.4628 5.60996V3.70401C31.4628 1.6722 29.8069 0 27.7549 0H24.2631C22.2291 0 20.5552 1.65422 20.5552 3.70401V5.60996C18.7553 6.09544 17.0273 6.79668 15.4254 7.73167L14.0755 6.38313C13.3735 5.68188 12.4375 5.30429 11.4656 5.30429C10.4756 5.30429 9.53964 5.68188 8.85566 6.38313L6.38975 8.84647C4.94981 10.2849 4.94981 12.6404 6.38975 14.0788L7.7397 15.4274C6.80374 17.0456 6.08377 18.7538 5.61579 20.5519H3.70786C1.67394 20.5519 0 22.2061 0 24.2559V27.7441C0 29.7759 1.65594 31.4481 3.70786 31.4481H5.61579C6.10177 33.2462 6.80374 34.9723 7.7397 36.5726L6.38975 37.9212C4.94981 39.3596 4.94981 41.7151 6.38975 43.1535L8.85566 45.6169C9.55763 46.3181 10.4936 46.6957 11.4656 46.6957C12.4555 46.6957 13.3915 46.3181 14.0755 45.6169L15.4254 44.2683C17.0453 45.2033 18.7553 45.9225 20.5552 46.39V48.296C20.5552 50.3278 22.2111 52 24.2631 52H27.7549C29.7889 52 31.4628 50.3458 31.4628 48.296V46.3721C33.2627 45.8866 34.9907 45.1853 36.5926 44.2503L37.9425 45.5989C38.6445 46.3001 39.5805 46.6777 40.5524 46.6777C41.5424 46.6777 42.4784 46.3001 43.1623 45.5989L45.6282 43.1355C47.0682 41.6971 47.0682 39.3416 45.6282 37.9032L44.2783 36.5546C45.2143 34.9364 45.9342 33.2282 46.4022 31.4302H48.2921ZM43.5043 29.4882C43.0543 31.7898 42.1544 33.9474 40.8404 35.9073C40.4084 36.5546 40.4984 37.4177 41.0384 37.9571L43.3063 40.2227C43.4863 40.4025 43.4863 40.6722 43.3063 40.852L40.8404 43.3153C40.7324 43.4232 40.6064 43.4412 40.5344 43.4412C40.4444 43.4412 40.3364 43.4232 40.2285 43.3153L37.9605 41.0498C37.4026 40.4924 36.5386 40.4205 35.9086 40.852C33.9467 42.1646 31.7868 43.0456 29.4829 43.5131C28.7269 43.657 28.1689 44.3402 28.1689 45.1134V48.314C28.1689 48.5477 27.9709 48.7455 27.7369 48.7455H24.2451C24.0111 48.7455 23.8131 48.5477 23.8131 48.314V45.1134C23.8131 44.3402 23.2551 43.675 22.4991 43.5131C20.1952 43.0636 18.0353 42.1646 16.0734 40.852C15.8034 40.6722 15.4794 40.5823 15.1734 40.5823C14.7594 40.5823 14.3274 40.7441 14.0215 41.0678L11.7536 43.3333C11.6456 43.4412 11.5196 43.4592 11.4476 43.4592C11.3576 43.4592 11.2496 43.4412 11.1416 43.3333L8.67567 40.87C8.49568 40.6902 8.49568 40.4205 8.67567 40.2407L10.9436 37.9751C11.5016 37.4177 11.5736 36.5546 11.1416 35.9253C9.82762 33.9654 8.94566 31.8077 8.47768 29.5062C8.33368 28.751 7.64971 28.1936 6.87574 28.1936H3.67186C3.43787 28.1936 3.23988 27.9958 3.23988 27.7621V24.2559C3.23988 24.0221 3.43787 23.8243 3.67186 23.8243H6.87574C7.64971 23.8243 8.31568 23.2669 8.47768 22.5118C8.92766 20.2102 9.82762 18.0526 11.1416 16.0927C11.5736 15.4454 11.4836 14.5823 10.9436 14.0429L8.67567 11.7773C8.56767 11.6694 8.54967 11.5436 8.54967 11.4716C8.54967 11.3817 8.56767 11.2739 8.67567 11.166L11.1236 8.68465C11.2316 8.57676 11.3576 8.55878 11.4296 8.55878C11.5196 8.55878 11.6276 8.57676 11.7356 8.68465L14.0035 10.9502C14.5614 11.5076 15.4254 11.5795 16.0554 11.148C18.0173 9.83541 20.1772 8.95436 22.4811 8.48686C23.2371 8.34301 23.7951 7.65975 23.7951 6.88658V3.70401C23.7951 3.47026 23.9931 3.27248 24.2271 3.27248H27.7189C27.9529 3.27248 28.1509 3.47026 28.1509 3.70401V6.90456C28.1509 7.67773 28.7089 8.34301 29.4649 8.50484C31.7688 8.95436 33.9287 9.85339 35.8906 11.166C36.5386 11.5975 37.4026 11.5076 37.9425 10.9682L40.2105 8.70263C40.3184 8.59474 40.4444 8.57676 40.5164 8.57676C40.6064 8.57676 40.7144 8.59474 40.8224 8.70263L43.2883 11.166C43.4683 11.3458 43.4683 11.6155 43.2883 11.7953L41.0204 14.0609C40.4624 14.6183 40.3905 15.4813 40.8224 16.1106C42.1364 18.0705 43.0183 20.2282 43.4863 22.5297C43.6303 23.2849 44.3143 23.8423 45.0883 23.8423H48.2921C48.5261 23.8423 48.7241 24.0401 48.7241 24.2739V27.7621C48.7241 27.9958 48.5261 28.1936 48.2921 28.1936H45.0883C44.3143 28.1757 43.6483 28.7151 43.5043 29.4882Z" fill="#2C2F33"/>
<path d="M25.991 15.5353C20.2132 15.5353 15.5334 20.2282 15.5334 25.982C15.5334 31.7538 20.2312 36.4288 25.991 36.4288C31.7688 36.4288 36.4486 31.7358 36.4486 25.982C36.4486 20.2282 31.7508 15.5353 25.991 15.5353ZM25.991 33.1743C22.0131 33.1743 18.7913 29.9557 18.7913 25.982C18.7913 22.0083 22.0131 18.7898 25.991 18.7898C29.9688 18.7898 33.1907 22.0083 33.1907 25.982C33.1907 29.9557 29.9508 33.1743 25.991 33.1743Z" fill="#2C2F33"/>
</svg>
