<svg width="114" height="114" viewBox="0 0 114 114" fill="none" xmlns="http://www.w3.org/2000/svg">
<path fill-rule="evenodd" clip-rule="evenodd" d="M96.0593 106.875H17.9407C11.969 106.871 7.12893 102.031 7.125 96.0593V17.9407C7.12893 11.969 11.969 7.12893 17.9407 7.125H96.0593C102.031 7.12893 106.871 11.969 106.875 17.9407V96.0593C106.871 102.031 102.031 106.871 96.0593 106.875ZM19.7712 14.25C16.7235 14.2537 14.2537 16.7235 14.25 19.7712V94.2288C14.2537 97.2765 16.7235 99.7463 19.7712 99.75H94.2288C97.2765 99.7463 99.7463 97.2765 99.75 94.2288V19.7712C99.7463 16.7235 97.2765 14.2537 94.2288 14.25H19.7712Z" fill="#92BD79"/>
<path d="M24.1074 63.6719H29.2344V78.3057C29.2344 79.6631 28.917 80.874 28.2822 81.9385C27.6572 83.0029 26.7783 83.8281 25.6455 84.4141C24.5225 85 23.2676 85.293 21.8809 85.293C19.5566 85.293 17.75 84.707 16.4609 83.5352C15.1719 82.3633 14.5273 80.7031 14.5273 78.5547H19.6836C19.6836 79.5312 19.8496 80.2393 20.1816 80.6787C20.5234 81.1182 21.0898 81.3379 21.8809 81.3379C22.5938 81.3379 23.1406 81.0742 23.5215 80.5469C23.9121 80.0098 24.1074 79.2627 24.1074 78.3057V63.6719ZM45.7373 79.3311C45.7373 78.5791 45.4688 77.9932 44.9316 77.5732C44.4043 77.1533 43.4717 76.7188 42.1338 76.2695C40.7959 75.8203 39.7021 75.3857 38.8525 74.9658C36.0889 73.6084 34.707 71.7432 34.707 69.3701C34.707 68.1885 35.0488 67.1484 35.7324 66.25C36.4258 65.3418 37.4023 64.6387 38.6621 64.1406C39.9219 63.6328 41.3379 63.3789 42.9102 63.3789C44.4434 63.3789 45.8154 63.6523 47.0264 64.1992C48.2471 64.7461 49.1943 65.5273 49.8682 66.543C50.542 67.5488 50.8789 68.7012 50.8789 70H45.752C45.752 69.1309 45.4834 68.457 44.9463 67.9785C44.4189 67.5 43.7012 67.2607 42.793 67.2607C41.875 67.2607 41.1475 67.4658 40.6104 67.876C40.083 68.2764 39.8193 68.7891 39.8193 69.4141C39.8193 69.9609 40.1123 70.459 40.6982 70.9082C41.2842 71.3477 42.3145 71.8066 43.7891 72.2852C45.2637 72.7539 46.4746 73.2617 47.4219 73.8086C49.7266 75.1367 50.8789 76.9678 50.8789 79.3018C50.8789 81.167 50.1758 82.6318 48.7695 83.6963C47.3633 84.7607 45.4346 85.293 42.9834 85.293C41.2549 85.293 39.6875 84.9854 38.2812 84.3701C36.8848 83.7451 35.8301 82.8955 35.1172 81.8213C34.4141 80.7373 34.0625 79.4922 34.0625 78.0859H39.2188C39.2188 79.2285 39.5117 80.0732 40.0977 80.6201C40.6934 81.1572 41.6553 81.4258 42.9834 81.4258C43.833 81.4258 44.502 81.2451 44.9902 80.8838C45.4883 80.5127 45.7373 79.9951 45.7373 79.3311ZM73.8271 74.7754C73.8271 76.8555 73.4414 78.6963 72.6699 80.2979C71.8984 81.8994 70.7998 83.1348 69.374 84.0039C67.958 84.8633 66.3418 85.293 64.5254 85.293C62.709 85.293 61.0977 84.8779 59.6914 84.0479C58.2852 83.208 57.1865 82.0117 56.3955 80.459C55.6143 78.9062 55.2041 77.124 55.165 75.1123V73.9111C55.165 71.8213 55.5459 69.9805 56.3076 68.3887C57.0791 66.7871 58.1777 65.5518 59.6035 64.6826C61.0391 63.8135 62.6699 63.3789 64.4961 63.3789C66.3027 63.3789 67.9141 63.8086 69.3301 64.668C70.7461 65.5273 71.8447 66.7529 72.626 68.3447C73.417 69.9268 73.8174 71.7432 73.8271 73.7939V74.7754ZM68.5977 73.8818C68.5977 71.7627 68.2412 70.1562 67.5283 69.0625C66.8252 67.959 65.8145 67.4072 64.4961 67.4072C61.918 67.4072 60.5557 69.3408 60.4092 73.208L60.3945 74.7754C60.3945 76.8652 60.7412 78.4717 61.4346 79.5947C62.1279 80.7178 63.1582 81.2793 64.5254 81.2793C65.8242 81.2793 66.8252 80.7275 67.5283 79.624C68.2314 78.5205 68.5879 76.9336 68.5977 74.8633V73.8818ZM96.541 85H91.4287L83.8701 71.7285V85H78.7285V63.6719H83.8701L91.4141 76.9434V63.6719H96.541V85Z" fill="#92BD79"/>
</svg>
