<svg width="172" height="118" viewBox="0 0 172 118" fill="none" xmlns="http://www.w3.org/2000/svg">
<g clip-path="url(#clip0_202_2)">
<path d="M86.6755 0.000118068C86.6755 0.000118068 80.0854 5.21331 73.3671 10.3913C66.4559 10.1715 52.9006 11.7206 45.5558 14.3945C38.7898 10.1036 32.8446 5.36595 32.8446 5.36595C32.8446 5.36595 27.7642 14.1151 24.5693 19.2495C19.8313 21.772 15.0742 24.6093 10.8344 28.3631C5.90308 26.4029 0.186568 24.013 -7.62939e-06 23.934C6.53054 37.12 10.9207 50.3234 22.8631 58.2592C41.8762 28.2001 130.229 30.9705 149.635 58.0887C162.176 51.5405 167.054 37.4521 171.986 24.445C171.445 24.6234 164.734 26.8724 160.384 28.5334C157.786 25.7026 151.664 21.3503 148.184 19.2493C144.884 13.199 140.08 5.02533 140.08 5.02533C140.08 5.02533 134.39 9.26146 127.795 13.8834C118.886 12.237 108.109 10.2366 99.0455 10.7319C92.8755 5.65528 86.6755 0 86.6755 0V0.000118068Z" fill="#F3D400"/>
<path d="M6.75217 51.9563C6.75217 51.9563 16.0083 74.3914 22.4368 89.9809C49.6768 125.956 119.237 128.457 149.561 90.6774C156.737 74.4886 166.418 51.7379 166.418 51.7379C158.639 63.2749 145.978 71.239 138.18 75.529C132.639 78.5677 119.854 80.4044 119.854 80.4044L86.2883 62.9925L52.53 80.0561C52.53 80.0561 39.915 78.0272 34.204 75.3549C22.6776 69.1955 14.9252 61.9185 6.75217 51.9563Z" fill="#FFE953"/>
</g>
<defs>
<clipPath id="clip0_202_2">
<rect width="171.986" height="118" fill="white"/>
</clipPath>
</defs>
</svg>
