<svg width="23" height="29" viewBox="0 0 23 29" fill="none" xmlns="http://www.w3.org/2000/svg">
<path fill-rule="evenodd" clip-rule="evenodd" d="M0.209637 19.5075C-0.0659575 19.0728 -0.070121 18.5191 0.198904 18.0802L10.3282 1.55731C10.8916 0.638316 12.252 0.718671 12.7033 1.69759L21.9569 21.7708C22.3002 22.5156 21.905 23.3919 21.1194 23.6276L6.72474 27.946C6.14558 28.1197 5.52155 27.8869 5.19781 27.3762L0.209637 19.5075ZM11.4969 6.38848C11.5945 5.90241 12.2605 5.83232 12.4572 6.28741L18.8402 21.0573C18.9603 21.3354 18.8108 21.6561 18.5205 21.7427L8.57492 24.7116C8.20935 24.8207 7.85916 24.5013 7.93428 24.1272L11.4969 6.38848Z" fill="#7394AA"/>
</svg>
