<svg width="114" height="180" viewBox="0 0 114 180" fill="none" xmlns="http://www.w3.org/2000/svg">
<path d="M98.2547 47.2565H15.0927C15.0927 42.0451 22.6096 26.2931 37.6435 0C37.6435 0 39.7249 13.8669 43.8881 41.6006L69.2945 41.6013L75.5307 0C90.6801 26.6417 98.2547 42.3939 98.2547 47.2565Z" fill="white"/>
<path d="M56.5466 179.09L0 139.422V46.8378C0 46.8378 20.907 39.1133 56.6189 39.1133C92.3311 39.1133 113.085 46.8378 113.085 46.8378V139.422L56.5466 179.09Z" fill="white"/>
<path d="M56.5466 173.515L3.61298 136.535V50.5538C3.61298 50.5538 23.4079 43.3803 56.5466 43.3803V173.515Z" fill="#DBDBDB"/>
<path d="M56.6186 43.3803C56.5939 43.3803 56.5709 43.381 56.5466 43.3803V173.405H56.5473L109.016 136.533V50.5538C109.016 50.5538 89.7569 43.3803 56.6186 43.3803Z" fill="#C6C6C6"/>
<path d="M85.1887 153.284L80.7249 114.448H56.193C56.193 145.272 56.193 164.99 56.193 173.605L56.5466 173.939C66.0905 167.402 75.6378 160.517 85.1887 153.284Z" fill="#3B3B63"/>
<path d="M27.9199 153.59L56.5466 173.939L56.5608 113.266H31.7686L27.9199 153.59Z" fill="#53537A"/>
<path d="M68.7962 142.095C68.7962 148.767 62.473 152.075 56.6718 152.075C50.871 152.075 44.4198 148.767 44.4198 142.095" fill="#BC9375"/>
<path d="M56.6078 145.545C51.9505 145.545 49.6861 142.178 49.6861 135.256H51.9067C51.9067 143.36 55.0808 143.36 56.6078 143.36C58.1338 143.36 61.3089 143.36 61.3089 135.256H63.5288C63.5288 142.178 61.2641 145.545 56.6078 145.545Z" fill="white"/>
<path d="M56.5466 136.945C57.9793 140.658 60.7487 142.515 64.8551 142.515C68.8755 142.515 73.071 140.429 74.9815 135.276C77.65 128.068 77.6232 118.036 77.6232 118.036C77.6232 118.036 89.4816 103.41 89.4816 98.4638C89.4816 98.4638 78.5033 98.4638 56.5466 98.4638V136.945Z" fill="#C49A7E"/>
<path d="M23.1336 98.4638C23.1336 104.191 34.8895 118.036 34.8895 118.036C34.8895 118.036 34.8606 128.065 37.5318 135.276C39.4382 140.426 43.6378 142.515 47.659 142.515C51.7654 142.515 54.7279 140.658 56.5466 136.945V98.4638H23.1336Z" fill="#D8B7A0"/>
<path d="M88.0663 65.5319C78.9247 56.2975 76.6383 37.0418 76.6383 37.0418C74.9317 43.1092 71.2221 60.9989 71.2221 60.9989C71.2221 60.9989 64.0164 58.703 56.2553 58.6912C56.0002 58.6912 56.0002 82.7945 56.2553 131.002L63.644 125.74L65.0176 100.205L72.8852 109.049L83.0203 111.967C83.0203 111.967 86.8125 109.303 86.8125 109.313C88.4223 107.092 88.9565 105.199 89.3459 104.217C90.7536 100.644 87.593 73.3212 87.593 73.3212C86.4707 71.0068 88.0663 65.5319 88.0663 65.5319Z" fill="#3B3B63"/>
<path d="M42.0639 60.9975C42.0639 60.9975 38.3528 43.1085 36.6476 37.0404C36.6476 37.0404 34.3626 56.296 25.2197 65.5305C25.2197 65.5305 26.8152 71.0065 25.693 73.3198C25.693 73.3198 22.5324 100.644 23.94 104.211C24.3287 105.194 24.8671 107.086 26.4748 109.307C26.4748 109.297 30.2691 111.962 30.2691 111.962L40.4022 109.044L48.268 100.201L49.6454 125.736L56.5539 130.858V58.5554C48.7636 58.5683 42.0639 60.9975 42.0639 60.9975Z" fill="#53537A"/>
<path d="M81.669 19.1968C83.186 21.9816 96.2245 47.7271 96.2245 56.6427L90.4414 72.161C91.4196 80.9176 93.3657 99.9438 91.8967 103.661C90.9899 105.96 87.5328 110.69 84.5762 114.52L88.6186 150.87L83.1539 154.747L80.1156 128.187C79.698 130.882 79.0698 133.76 78.1125 136.345C76.8464 139.765 74.6095 142.357 71.7479 143.893C71.5805 152.093 63.9043 156.517 56.6718 156.517C49.3795 156.517 41.6393 152.097 41.4688 143.899C38.6012 142.361 36.3615 139.769 35.0941 136.345C34.1747 133.86 33.5556 131.109 33.1357 128.504L30.2292 155.235L24.7349 151.295L28.7026 114.631C25.7227 110.784 22.1993 105.983 21.2838 103.659C19.8148 99.9407 21.6849 80.9176 22.6647 72.1596L16.5379 56.0976V55.5741C16.5379 46.6585 29.9181 21.9816 31.4369 19.1968L35.7703 11.3784C38.4088 29.4928 39.727 38.558 39.7249 38.5741L41.8589 53.2532L44.6662 57.7994C47.3635 56.9027 51.9425 55.6573 56.5793 55.6573C61.2212 55.6573 65.8315 56.9069 68.5404 57.8022L71.3463 53.2539L77.4255 11.3784L81.669 19.1968ZM56.6718 150.689C59.8731 150.689 64.4319 149.263 65.5698 145.483C65.4477 145.487 65.3301 145.496 65.2079 145.496C64.585 145.496 64.0025 145.439 63.4373 145.363C61.7864 147.625 59.214 148.311 56.6082 148.311C54.0069 148.311 51.4397 147.619 49.7915 145.36C49.2226 145.44 48.6337 145.496 48.0059 145.496C47.8859 145.496 47.7703 145.487 47.6524 145.483C48.8022 149.263 53.4226 150.689 56.6718 150.689ZM52.9232 144.476C53.916 145.208 55.1427 145.616 56.6106 145.616C58.0701 145.616 59.2912 145.206 60.2827 144.476C59.492 144.13 58.7769 143.717 58.146 143.267C57.5752 143.433 57.0289 143.43 56.6075 143.43C56.1843 143.43 55.632 143.43 55.0568 143.263C54.4276 143.717 53.7135 144.13 52.9232 144.476ZM75.6688 116.277C79.6019 111.467 85.5228 103.719 86.3802 101.551C87.0272 99.3187 85.9237 84.5195 84.5198 72.1158L84.4426 71.428L85.6028 68.3465C81.7769 64.33 79.1074 58.8255 77.2839 53.6277L77.0469 55.2605L71.006 65.0376L68.6465 64.0477C68.5887 64.0227 62.4295 61.4831 56.5831 61.4831C50.6991 61.4831 44.6394 64.0206 44.5802 64.0456L42.2173 65.0439L36.1691 55.2626L35.9899 54.0099C34.1465 59.1569 31.4745 64.5646 27.6665 68.4937L28.7749 71.4301L28.6976 72.1186C27.2929 84.5195 26.1895 99.3187 26.8579 101.607C27.6939 103.723 33.6155 111.47 37.5465 116.277L38.2024 117.08L38.199 118.109C38.199 118.205 38.2104 127.721 40.6628 134.344C42.4435 139.147 46.393 139.66 48.0108 139.66C52.0775 139.66 53.7981 135.985 53.869 135.829C54.8219 133.983 55.2986 130.949 55.2986 126.729H57.7573C57.7573 130.12 58.2699 133.16 59.2947 135.849C59.357 135.982 61.121 139.669 65.2079 139.669C66.822 139.669 70.7731 139.15 72.5521 134.347C75.0125 127.701 75.0156 118.205 75.0156 118.112L75.0125 117.083L75.6688 116.277Z" fill="#333152"/>
<path d="M74.9982 90.4121H66.1176H63.1579V90.5353C63.1579 94.6057 66.7332 97.9034 70.927 97.9034C75.1225 97.9034 78.6978 94.605 78.6978 90.5353V90.4121H74.9982Z" fill="#333152"/>
<path d="M66.1176 90.4121V90.5353C66.1176 92.9566 68.0977 94.9187 70.5588 94.9187C73.0198 94.9187 74.9989 92.9566 74.9989 90.5353V90.4121H66.1176Z" fill="white"/>
<path d="M69.8475 90.4121C69.8273 90.4121 69.8099 90.4222 69.7918 90.4257C70.05 90.4789 70.193 91.055 70.1373 91.4382C70.0542 92.0244 69.5468 92.431 68.966 92.4411C69.1351 93.2068 69.7695 93.8229 70.612 93.9395C71.6887 94.0896 72.6837 93.3628 72.8361 92.3039C72.946 91.5242 72.565 90.4121 71.9285 90.4121H69.8475Z" fill="#333152"/>
<path d="M46.4163 90.4121H37.5371H34.5766V90.5353C34.5766 94.6057 38.1527 97.9034 42.3457 97.9034C46.5412 97.9034 50.1173 94.605 50.1173 90.5353V90.4121H46.4163Z" fill="#333152"/>
<path d="M37.5371 90.4121V90.5353C37.5371 92.9566 39.5182 94.9187 41.9758 94.9187C44.4379 94.9187 46.417 92.9566 46.417 90.5353V90.4121H37.5371Z" fill="white"/>
<path d="M43.3483 90.4121H41.2648C41.2468 90.4121 41.2273 90.4222 41.2109 90.4257C41.4681 90.4789 41.6104 91.055 41.5561 91.4382C41.4723 92.0244 40.968 92.431 40.3834 92.4411C40.5546 93.2068 41.189 93.8229 42.0301 93.9395C43.1061 94.0896 44.1035 93.3628 44.2535 92.3039C44.3648 91.5242 43.9848 90.4121 43.3483 90.4121Z" fill="#333152"/>
<path d="M74.1049 86.9376C74.6022 86.4012 78.8227 81.6879 73.1778 81.6879C68.0772 81.6879 64.4072 85.7385 63.4345 86.9376H74.1049Z" fill="#C49A7E"/>
<path d="M49.7567 86.9376C48.7848 85.7385 45.1148 81.6879 40.0124 81.6879C34.3706 81.6879 38.5912 86.4012 39.0853 86.9376H49.7567Z" fill="#D8B7A0"/>
<path d="M22.62 55.1001C22.9553 50.4755 27.8436 39.3948 32.5065 30.0568L33.7493 38.5949C33.2753 41.7872 31.109 54.3071 25.2979 62.1987L22.62 55.1001Z" fill="#D8B7A0"/>
<path d="M79.565 37.9301L80.7103 30.0575C85.3724 39.3948 90.2636 50.4762 90.5987 55.1008L87.9838 62.031C81.7052 53.3433 79.7355 39.2208 79.565 37.9301Z" fill="#C49A7E"/>
<mask id="mask0_203_43" style="mask-type:alpha" maskUnits="userSpaceOnUse" x="47" y="122" width="19" height="13">
<path d="M52.254 131.915C50.0644 130.279 47.818 128.216 47.818 126.633C47.818 125.594 49.6861 122.389 49.6861 122.389H63.5758C63.5758 122.389 65.3972 125.23 65.3972 126.633C65.3972 128.107 63.13 130.113 60.8677 131.749C60.0976 130.444 59.1176 130.217 58.6648 131.246C58.4313 131.779 58.3854 132.546 58.4995 133.349C57.2673 134.133 56.367 134.637 56.367 134.637C56.367 134.637 55.6717 134.237 54.6778 133.594C54.8379 132.704 54.8073 131.833 54.549 131.246C54.0925 130.203 53.093 130.45 52.317 131.802C52.2957 131.839 52.2749 131.876 52.254 131.915Z" fill="white"/>
</mask>
<g mask="url(#mask0_203_43)">
<path d="M52.254 131.915C50.0644 130.279 47.818 128.216 47.818 126.633C47.818 125.594 49.6861 122.389 49.6861 122.389H63.5758C63.5758 122.389 65.3972 125.23 65.3972 126.633C65.3972 128.107 63.13 130.113 60.8677 131.749C60.0976 130.444 59.1176 130.217 58.6648 131.246C58.4313 131.779 58.3854 132.546 58.4995 133.349C57.2673 134.133 56.367 134.637 56.367 134.637C56.367 134.637 55.6717 134.237 54.6778 133.594C54.8379 132.704 54.8073 131.833 54.549 131.246C54.0925 130.203 53.093 130.45 52.317 131.802C52.2957 131.839 52.2749 131.876 52.254 131.915Z" fill="#333152"/>
</g>
</svg>
