<svg xmlns="http://www.w3.org/2000/svg" width="89" height="89" fill="none" viewBox="0 0 89 89"><rect width="53" height="56" x="18" y="14" fill="#fff"/><path fill="#000" d="M40.1548 0.192461C31.543 1.10377 23.3709 4.45703 16.6011 9.8573C13.8503 12.1889 11.3298 14.7792 9.07432 17.5927C4.49605 23.6703 1.51926 30.8014 0.417681 38.3304C0.0182583 41.6466 -0.0690386 44.9929 0.156939 48.3255C1.05079 58.3562 5.30753 67.7907 12.2366 75.0984C19.1657 82.4061 28.3606 87.1583 38.3296 88.5841C40.8849 88.9665 45.7694 89.0882 48.3247 88.8448C58.3554 87.951 67.7899 83.6942 75.0976 76.7651C82.4053 69.8361 87.1576 60.6412 88.5833 50.6721C88.9657 48.1169 89.0874 43.2323 88.8441 40.677C88.0772 31.8659 84.7001 23.4836 79.1444 16.6018C76.8129 13.8511 74.2225 11.3306 71.4091 9.07508C65.3281 4.50265 58.1985 1.5265 50.6714 0.418438C47.1768 0.0744406 43.661 -0.00110639 40.1548 0.192461V0.192461ZM55.9732 41.0421L66.9243 60.2327L44.9872 60.2848C32.9235 60.3022 23.0327 60.2848 22.998 60.2501C22.9632 60.2153 27.8651 51.5239 33.9144 40.9552C37.5562 34.5426 41.2357 28.1514 44.9525 21.7819L55.9732 41.0421Z"/></svg>