<svg width="175" height="173" viewBox="0 0 175 173" fill="none" xmlns="http://www.w3.org/2000/svg">
<path d="M170.578 25.4895L92.0428 166.382C90.4212 169.291 86.2554 169.308 84.6095 166.413L4.51659 25.5031C2.72356 22.3485 5.41229 18.5275 8.97542 19.1664L87.5952 33.265C88.0967 33.3549 88.6102 33.3541 89.1117 33.2624L166.087 19.1866C169.639 18.5373 172.34 22.3287 170.578 25.4895Z" fill="url(#paint0_linear_308_11)"/>
<path d="M125.046 0.674188L66.9273 12.0994C65.972 12.2872 65.2648 13.0993 65.2071 14.074L61.632 74.6512C61.5479 76.078 62.854 77.1854 64.2421 76.8642L80.4232 73.1178C81.9371 72.7675 83.3051 74.1052 82.994 75.6327L78.1866 99.2502C77.8631 100.84 79.3506 102.199 80.8978 101.727L90.892 98.6811C92.4414 98.2092 93.9302 99.5722 93.6024 101.163L85.9626 138.261C85.4845 140.581 88.5611 141.847 89.8442 139.857L90.7012 138.528L138.06 43.7091C138.853 42.1214 137.485 40.3111 135.747 40.6476L119.091 43.8726C117.526 44.1754 116.194 42.713 116.636 41.1767L127.507 3.36874C127.949 1.82984 126.613 0.366206 125.046 0.674188Z" fill="url(#paint1_linear_308_11)"/>
<defs>
<linearGradient id="paint0_linear_308_11" x1="2.56106" y1="14.1311" x2="100.717" y2="147.002" gradientUnits="userSpaceOnUse">
<stop stop-color="#41D1FF"/>
<stop offset="1" stop-color="#BD34FE"/>
</linearGradient>
<linearGradient id="paint1_linear_308_11" x1="83.0828" y1="3.7761" x2="100.877" y2="125.447" gradientUnits="userSpaceOnUse">
<stop stop-color="#FFEA83"/>
<stop offset="0.0833333" stop-color="#FFDD35"/>
<stop offset="1" stop-color="#FFA800"/>
</linearGradient>
</defs>
</svg>
