<svg width="114" height="114" viewBox="0 0 114 114" fill="none" xmlns="http://www.w3.org/2000/svg">
<rect x="13" y="13" width="89" height="89" fill="white"/>
<path fill-rule="evenodd" clip-rule="evenodd" d="M96.0593 106.875H17.9407C11.969 106.871 7.12893 102.031 7.125 96.0593V17.9407C7.12893 11.969 11.969 7.12893 17.9407 7.125H96.0593C102.031 7.12893 106.871 11.969 106.875 17.9407V96.0593C106.871 102.031 102.031 106.871 96.0593 106.875ZM19.7712 14.25C16.7235 14.2537 14.2537 16.7235 14.25 19.7712V94.2288C14.2537 97.2765 16.7235 99.7463 19.7712 99.75H94.2288C97.2765 99.7463 99.7463 97.2765 99.75 94.2288V19.7712C99.7463 16.7235 97.2765 14.2537 94.2288 14.25H19.7712Z" fill="#424242"/>
<path d="M26.3768 64.8281L30.3279 72.8633L34.2791 64.8281H40.9197L34.1795 76.8145L41.1023 89H34.3953L30.3279 80.8154L26.2605 89H19.5369L26.4764 76.8145L19.7195 64.8281H26.3768ZM48.4668 64.8281H53.2148L58.6104 81.6455L64.0059 64.8281H68.7539L60.5361 89H56.6846L48.4668 64.8281ZM45.5781 64.8281H50.4922L51.4053 83.3555V89H45.5781V64.8281ZM66.7285 64.8281H71.6592V89H65.8154V83.3555L66.7285 64.8281ZM93.9152 84.5176V89H81.6965V84.5176H93.9152ZM83.7717 64.8281V89H77.9445V64.8281H83.7717Z" fill="#424242"/>
<path d="M26.3768 64.8281L27.2741 64.3869L26.9994 63.8281H26.3768V64.8281ZM30.3279 72.8633L29.4306 73.3046L30.3279 75.1295L31.2253 73.3046L30.3279 72.8633ZM34.2791 64.8281V63.8281H33.6565L33.3817 64.3869L34.2791 64.8281ZM40.9197 64.8281L41.7914 65.3183L42.6293 63.8281H40.9197V64.8281ZM34.1795 76.8145L33.3079 76.3243L33.0308 76.817L33.31 77.3084L34.1795 76.8145ZM41.1023 89V90H42.8206L41.9718 88.506L41.1023 89ZM34.3953 89L33.4998 89.445L33.7756 90H34.3953V89ZM30.3279 80.8154L31.2234 80.3704L30.3279 78.5684L29.4324 80.3704L30.3279 80.8154ZM26.2605 89V90H26.8803L27.1561 89.445L26.2605 89ZM19.5369 89L18.6679 88.5051L17.8166 90H19.5369V89ZM26.4764 76.8145L27.3453 77.3093L27.6257 76.817L27.3475 76.3234L26.4764 76.8145ZM19.7195 64.8281V63.8281H18.0079L18.8484 65.3192L19.7195 64.8281ZM25.4794 65.2694L29.4306 73.3046L31.2253 72.422L27.2741 64.3869L25.4794 65.2694ZM31.2253 73.3046L35.1765 65.2694L33.3817 64.3869L29.4306 72.422L31.2253 73.3046ZM34.2791 65.8281H40.9197V63.8281H34.2791V65.8281ZM40.0481 64.338L33.3079 76.3243L35.0511 77.3046L41.7914 65.3183L40.0481 64.338ZM33.31 77.3084L40.2329 89.494L41.9718 88.506L35.049 76.3205L33.31 77.3084ZM41.1023 88H34.3953V90H41.1023V88ZM35.2908 88.555L31.2234 80.3704L29.4324 81.2605L33.4998 89.445L35.2908 88.555ZM29.4324 80.3704L25.365 88.555L27.1561 89.445L31.2234 81.2605L29.4324 80.3704ZM26.2605 88H19.5369V90H26.2605V88ZM20.4059 89.4949L27.3453 77.3093L25.6074 76.3196L18.6679 88.5051L20.4059 89.4949ZM27.3475 76.3234L20.5907 64.3371L18.8484 65.3192L25.6052 77.3055L27.3475 76.3234ZM19.7195 65.8281H26.3768V63.8281H19.7195V65.8281ZM48.4668 64.8281V63.8281H47.0706L47.52 65.15L48.4668 64.8281ZM53.2148 64.8281L54.167 64.5226L53.9442 63.8281H53.2148V64.8281ZM58.6104 81.6455L57.6582 81.951L58.6104 84.9189L59.5625 81.951L58.6104 81.6455ZM64.0059 64.8281V63.8281H63.2765L63.0537 64.5226L64.0059 64.8281ZM68.7539 64.8281L69.7007 65.15L70.1501 63.8281H68.7539V64.8281ZM60.5361 89V90H61.2524L61.4829 89.3219L60.5361 89ZM56.6846 89L55.7378 89.3219L55.9683 90H56.6846V89ZM45.5781 64.8281V63.8281H44.5781V64.8281H45.5781ZM50.4922 64.8281L51.491 64.7789L51.4441 63.8281H50.4922V64.8281ZM51.4053 83.3555H52.4053V83.3308L52.4041 83.3062L51.4053 83.3555ZM51.4053 89V90H52.4053V89H51.4053ZM45.5781 89H44.5781V90H45.5781V89ZM66.7285 64.8281V63.8281H65.7766L65.7297 64.7789L66.7285 64.8281ZM71.6592 64.8281H72.6592V63.8281H71.6592V64.8281ZM71.6592 89V90H72.6592V89H71.6592ZM65.8154 89H64.8154V90H65.8154V89ZM65.8154 83.3555L64.8166 83.3062L64.8154 83.3308V83.3555H65.8154ZM48.4668 65.8281H53.2148V63.8281H48.4668V65.8281ZM52.2626 65.1336L57.6582 81.951L59.5625 81.34L54.167 64.5226L52.2626 65.1336ZM59.5625 81.951L64.9581 65.1336L63.0537 64.5226L57.6582 81.34L59.5625 81.951ZM64.0059 65.8281H68.7539V63.8281H64.0059V65.8281ZM67.8071 64.5062L59.5894 88.6781L61.4829 89.3219L69.7007 65.15L67.8071 64.5062ZM60.5361 88H56.6846V90H60.5361V88ZM57.6314 88.6781L49.4136 64.5062L47.52 65.15L55.7378 89.3219L57.6314 88.6781ZM45.5781 65.8281H50.4922V63.8281H45.5781V65.8281ZM49.4934 64.8773L50.4065 83.4047L52.4041 83.3062L51.491 64.7789L49.4934 64.8773ZM50.4053 83.3555V89H52.4053V83.3555H50.4053ZM51.4053 88H45.5781V90H51.4053V88ZM46.5781 89V64.8281H44.5781V89H46.5781ZM66.7285 65.8281H71.6592V63.8281H66.7285V65.8281ZM70.6592 64.8281V89H72.6592V64.8281H70.6592ZM71.6592 88H65.8154V90H71.6592V88ZM66.8154 89V83.3555H64.8154V89H66.8154ZM66.8142 83.4047L67.7273 64.8773L65.7297 64.7789L64.8166 83.3062L66.8142 83.4047ZM93.9152 84.5176H94.9152V83.5176H93.9152V84.5176ZM93.9152 89V90H94.9152V89H93.9152ZM81.6965 89H80.6965V90H81.6965V89ZM81.6965 84.5176V83.5176H80.6965V84.5176H81.6965ZM83.7717 64.8281H84.7717V63.8281H83.7717V64.8281ZM83.7717 89V90H84.7717V89H83.7717ZM77.9445 89H76.9445V90H77.9445V89ZM77.9445 64.8281V63.8281H76.9445V64.8281H77.9445ZM92.9152 84.5176V89H94.9152V84.5176H92.9152ZM93.9152 88H81.6965V90H93.9152V88ZM82.6965 89V84.5176H80.6965V89H82.6965ZM81.6965 85.5176H93.9152V83.5176H81.6965V85.5176ZM82.7717 64.8281V89H84.7717V64.8281H82.7717ZM83.7717 88H77.9445V90H83.7717V88ZM78.9445 89V64.8281H76.9445V89H78.9445ZM77.9445 65.8281H83.7717V63.8281H77.9445V65.8281Z" fill="white"/>
</svg>
