<svg xmlns="http://www.w3.org/2000/svg" width="391" height="391" fill="none" viewBox="0 0 391 391"><g clip-path="url(#clip0_1:16)"><rect width="391" height="391" fill="#2E3440"/><path fill="url(#paint0_linear_1:16)" stroke="#D8DEE9" stroke-width="4" d="M389 389.5H1L196.5 116L389 389.5Z"/><path fill="url(#paint1_linear_1:16)" d="M2.95094 390.262L0.737732 385.836L171.892 255.994L300.258 385.836L298.045 390.262L171.155 261.896L2.95094 390.262Z"/><path fill="url(#paint2_linear_1:16)" d="M387.311 390.262L194.762 211.73L84.8396 275.175L83.3642 270.749L195.5 205.828L196.238 206.566L389.525 385.836L387.311 390.262Z"/><path fill="url(#paint3_linear_1:16)" d="M196.975 208.042L193.287 209.517L222.796 313.538L225.747 311.325L196.975 208.042Z"/><path fill="url(#paint4_linear_1:16)" d="M3.69565 385.826H387.304V5.17391H3.69565V385.826ZM391 391H0V0H391V391Z"/><path fill="#D8DEE9" d="M25.4485 86V46.128H29.3525L41.5125 65.776L53.9285 46.064H57.6405V86H53.0325V55.472L42.2165 71.92H40.1045L29.9925 55.664V86H25.4485ZM79.8235 86.512C76.6662 86.512 73.8502 85.872 71.3755 84.592C68.9435 83.312 67.0448 81.5413 65.6795 79.28C64.3142 76.976 63.6315 74.3307 63.6315 71.344C63.6315 68.3573 64.3142 65.7333 65.6795 63.472C67.0448 61.168 68.9435 59.376 71.3755 58.096C73.8502 56.7733 76.6662 56.112 79.8235 56.112C83.0235 56.112 85.8395 56.7733 88.2715 58.096C90.7035 59.376 92.5808 61.168 93.9035 63.472C95.2688 65.7333 95.9515 68.3573 95.9515 71.344C95.9515 74.3307 95.2688 76.976 93.9035 79.28C92.5808 81.5413 90.7035 83.312 88.2715 84.592C85.8395 85.872 83.0235 86.512 79.8235 86.512ZM79.8235 82.544C81.9568 82.544 83.8555 82.0747 85.5195 81.136C87.1835 80.1973 88.4848 78.8747 89.4235 77.168C90.3622 75.4613 90.8315 73.4987 90.8315 71.28C90.8315 69.0187 90.3622 67.056 89.4235 65.392C88.4848 63.728 87.1835 62.4267 85.5195 61.488C83.8555 60.5493 81.9568 60.08 79.8235 60.08C77.6902 60.08 75.7915 60.5493 74.1275 61.488C72.4635 62.4267 71.1408 63.728 70.1595 65.392C69.2208 67.056 68.7515 69.0187 68.7515 71.28C68.7515 73.4987 69.2208 75.4613 70.1595 77.168C71.1408 78.8747 72.4635 80.1973 74.1275 81.136C75.7915 82.0747 77.6902 82.544 79.8235 82.544ZM102.903 82.736L125.239 60.912H104.247V56.752H132.087V60.016L110.199 81.904H130.807C131.532 81.904 132.044 81.8613 132.343 81.776C132.641 81.6907 132.919 81.52 133.175 81.264H133.623V86H102.903V82.736ZM153.694 86.704C149.683 86.704 146.59 85.9573 144.414 84.464C142.28 82.928 141.214 80.9867 141.214 78.64C141.214 76.5493 142.003 74.736 143.582 73.2C145.203 71.664 147.358 70.4907 150.046 69.68C152.734 68.8267 155.678 68.4 158.878 68.4C160.072 68.4 161.374 68.4427 162.782 68.528C164.232 68.5707 165.726 68.6773 167.262 68.848C166.878 65.4347 165.704 63.1093 163.742 61.872C161.822 60.592 159.176 59.952 155.806 59.952C154.142 59.952 152.478 60.208 150.814 60.72C149.192 61.232 147.699 62.0427 146.334 63.152L143.71 60.208C145.374 58.8427 147.272 57.8187 149.406 57.136C151.539 56.4533 153.8 56.112 156.19 56.112C159.304 56.112 162.014 56.5387 164.318 57.392C166.622 58.2453 168.414 59.7173 169.694 61.808C171.016 63.8987 171.678 66.7787 171.678 70.448V86H166.494V81.52C165.598 82.928 164.403 84.016 162.91 84.784C161.416 85.5093 159.838 86 158.174 86.256C156.552 86.5547 155.059 86.704 153.694 86.704ZM146.142 78.384C146.142 79.536 146.526 80.4533 147.294 81.136C148.062 81.8187 149.043 82.3093 150.238 82.608C151.475 82.9067 152.798 83.056 154.206 83.056C157.96 83.056 161.011 82.16 163.358 80.368C165.747 78.576 167.07 75.952 167.326 72.496C166.003 72.368 164.638 72.2613 163.23 72.176C161.822 72.048 160.542 71.984 159.39 71.984C156.915 71.984 154.675 72.2187 152.67 72.688C150.664 73.1147 149.064 73.7973 147.87 74.736C146.718 75.6747 146.142 76.8907 146.142 78.384ZM184.645 56.752H189.701L189.573 62.256C190.597 60.2507 192.218 58.7147 194.437 57.648C196.698 56.5813 199.002 56.048 201.349 56.048C205.146 56.048 208.282 57.1147 210.757 59.248L208.581 63.024L208.325 63.6L207.877 63.344C207.791 63.0027 207.642 62.704 207.429 62.448C207.258 62.192 206.895 61.8507 206.341 61.424C205.402 60.9547 204.506 60.6347 203.653 60.464C202.842 60.2507 201.946 60.144 200.965 60.144C199.258 60.144 197.53 60.5067 195.781 61.232C194.031 61.9147 192.559 63.024 191.365 64.56C190.17 66.096 189.573 68.08 189.573 70.512V86.064H184.645V56.752ZM236.908 86.512C233.878 86.512 231.596 85.936 230.06 84.784C228.566 83.5893 227.585 81.7973 227.116 79.408C226.646 76.976 226.497 73.8827 226.668 70.128L227.052 60.72H219.436V56.752H227.244L227.564 49.264L232.684 48.688L233.324 48.624L233.388 49.072C233.174 49.3707 232.982 49.6693 232.812 49.968C232.641 50.2667 232.534 50.7787 232.492 51.504L231.98 56.752H244.46V60.72H231.98L231.468 70.448C231.297 73.6907 231.382 76.1867 231.724 77.936C232.108 79.6853 232.79 80.9013 233.772 81.584C234.753 82.224 236.076 82.544 237.74 82.544C239.446 82.544 240.982 82.2667 242.348 81.712C243.713 81.1573 245.1 80.432 246.507 79.536L248.044 83.312C244.588 85.4453 240.876 86.512 236.908 86.512ZM277.331 86V76.272H256.275V72.944L278.291 46.064H282.323V72.432H288.787V76.336H282.323V86H277.331ZM262.227 72.368H277.331V53.872L262.227 72.368ZM310.138 86.704C305.444 86.704 301.796 84.912 299.194 81.328C296.591 77.744 295.29 72.7307 295.29 66.288C295.29 62.1067 295.866 58.5013 297.018 55.472C298.212 52.4 299.919 50.032 302.138 48.368C304.356 46.704 307.023 45.872 310.138 45.872C313.252 45.872 315.919 46.704 318.138 48.368C320.356 50.032 322.042 52.4 323.194 55.472C324.388 58.5013 324.986 62.1067 324.986 66.288C324.986 72.7307 323.684 77.744 321.082 81.328C318.479 84.912 314.831 86.704 310.138 86.704ZM300.154 66.288C300.154 69.232 300.452 71.8347 301.05 74.096L318.138 55.792C317.284 53.9573 316.175 52.528 314.81 51.504C313.444 50.48 311.887 49.968 310.138 49.968C307.108 49.968 304.676 51.4613 302.842 54.448C301.05 57.392 300.154 61.3387 300.154 66.288ZM310.138 82.608C313.167 82.608 315.578 81.2 317.37 78.384C319.204 75.568 320.122 71.536 320.122 66.288C320.122 63.7707 319.866 61.4667 319.354 59.376L302.33 77.424C304.079 80.88 306.682 82.608 310.138 82.608ZM346.849 86.64C342.198 86.64 338.379 85.424 335.393 82.992L338.593 79.728L339.041 79.28L339.361 79.6C339.361 79.9413 339.467 80.24 339.681 80.496C339.894 80.7093 340.257 81.0293 340.769 81.456C342.219 82.224 344.075 82.608 346.337 82.608C348.854 82.608 350.945 81.9253 352.609 80.56C354.315 79.1947 355.638 77.3813 356.577 75.12C357.515 72.8587 358.091 70.4267 358.305 67.824C357.025 68.8053 355.595 69.5733 354.017 70.128C352.438 70.6827 350.582 70.96 348.449 70.96C345.803 70.96 343.435 70.4693 341.345 69.488C339.254 68.464 337.59 67.0347 336.353 65.2C335.158 63.3653 334.561 61.2533 334.561 58.864C334.561 56.304 335.179 54.064 336.417 52.144C337.654 50.1813 339.297 48.6453 341.345 47.536C343.435 46.4267 345.739 45.872 348.257 45.872C351.371 45.872 354.017 46.5973 356.193 48.048C358.411 49.4987 360.097 51.504 361.249 54.064C362.443 56.5813 363.041 59.4827 363.041 62.768C363.041 70.7893 361.59 76.7627 358.689 80.688C355.83 84.5707 351.883 86.5547 346.849 86.64ZM339.233 58.8C339.233 60.5067 339.659 61.9787 340.513 63.216C341.409 64.4107 342.561 65.328 343.969 65.968C345.419 66.608 346.934 66.928 348.513 66.928C350.817 66.928 352.715 66.6507 354.209 66.096C355.745 65.4987 357.131 64.5173 358.369 63.152C358.155 58.6293 357.217 55.3013 355.553 53.168C353.889 51.0347 351.542 49.968 348.513 49.968C345.91 49.968 343.713 50.7147 341.921 52.208C340.129 53.7013 339.233 55.8987 339.233 58.8Z"/></g><defs><linearGradient id="paint0_linear_1:16" x1="195" x2="195" y1="116" y2="389.5" gradientUnits="userSpaceOnUse"><stop stop-color="#88C0D0"/></linearGradient><linearGradient id="paint1_linear_1:16" x1="194.836" x2="196.312" y1="6.123" y2="388.713" gradientUnits="userSpaceOnUse"><stop stop-color="#D8DEE9"/></linearGradient><linearGradient id="paint2_linear_1:16" x1="194.836" x2="196.312" y1="6.123" y2="388.713" gradientUnits="userSpaceOnUse"><stop stop-color="#D8DEE9"/></linearGradient><linearGradient id="paint3_linear_1:16" x1="194.836" x2="196.312" y1="6.123" y2="388.713" gradientUnits="userSpaceOnUse"><stop stop-color="#D8DEE9"/></linearGradient><linearGradient id="paint4_linear_1:16" x1="195.204" x2="196.683" y1="6.135" y2="389.448" gradientUnits="userSpaceOnUse"><stop stop-color="#242933"/></linearGradient><clipPath id="clip0_1:16"><rect width="391" height="391" fill="#fff"/></clipPath></defs></svg>